<?xml version="1.0" encoding="UTF-8"?>
<svg id="uuid-5c887583-c04e-4c6c-83ee-1b2091aeb159" data-name="Layer 1" xmlns="http://www.w3.org/2000/svg" viewBox="0 0 2048 2048">
  <defs>
    <style>
      .uuid-50a9e167-a621-4bf4-a6cb-a1ae8788f626 {
        opacity: .85;
      }
    </style>
  </defs>
  <g class="uuid-50a9e167-a621-4bf4-a6cb-a1ae8788f626">
    <path d="M923.6300414,164.2819925v1378.1473247h-175.7368162V164.2819925h175.7368162ZM1177.9980921,1542.4293171h-332.9757338v-155.3883427h321.8765664c112.2249142,0,205.1747312-21.4218497,278.849451-64.2883869,73.6747198-42.8436994,128.7138006-104.3687134,165.0944047-184.5293664,36.380604-80.160653,54.582325-176.0344212,54.582325-287.6427149,0-110.375053-18.0418564-205.1747312-54.1027313-284.4218725-36.0837127-79.2243035-89.7296882-140.1098593-160.9379264-182.6566674-71.231076-42.5468081-160.1842792-63.8316311-266.8367719-63.8316311h-345.9247623v-155.3883427h357.9374414c134.4232489,0,249.2516714,27.451027,344.5309433,82.3302433,95.2792719,54.8792163,168.3373713,133.6467639,219.2199738,236.3026429,50.8597647,102.6787168,76.301066,225.2263133,76.301066,367.6656275,0,143.672555-25.6011658,267.1572147-76.7806596,370.4297141-51.1794938,103.2953372-125.7905632,182.6795052-223.833208,238.1753419s-217.0503835,83.243755-357.0003782,83.243755Z"/>
    <path d="M381.6613829,508.3568936h167.4010218v1108.0668725c.6166204,65.3617632-10.4825469,121.4742203-33.297502,168.3373713-22.8149551,46.863151-56.7290775,82.6271346-101.7423673,107.2919509-45.0132898,24.6648163-101.1257468,36.9972245-168.3373713,36.9972245h-33.297502v-153.5384815h30.5341291c48.0963918,0,83.243755-13.7255135,105.4420897-41.1537028,22.1983347-27.4738648,33.297502-66.7777064,33.297502-117.9343624V508.3568936ZM466.3667567,339.0831728c-31.4704786,0-58.6017765-10.7794382-81.4167316-32.3611525-22.8149551-21.5817143-34.2110137-47.4797714-34.2110137-77.6941714,0-30.8310204,11.3960586-56.8661043,34.2110137-78.1509272s49.946253-31.9272344,81.4167316-31.9272344c32.0642612,0,59.4924504,10.6424115,82.3074055,31.9272344,22.8149551,21.284823,34.2338515,47.3199068,34.2338515,78.1509272,0,30.2144-11.4188964,56.1124571-34.2338515,77.6941714-22.8149551,21.5817143-50.2431443,32.3611525-82.3074055,32.3611525Z"/>
  </g>
</svg>